<svg id="svg" version="1.1" xmlns="http://www.w3.org/2000/svg" xmlns:xlink="http://www.w3.org/1999/xlink" width="40" height="40" viewBox="0, 0, 400,400"><g id="svgg"><path id="path0" d="M132.773 26.402 C 132.428 26.598,130.313 26.790,128.073 26.828 C 125.833 26.867,124.000 27.056,124.000 27.249 C 124.000 27.442,122.920 27.600,121.600 27.600 C 120.267 27.600,119.200 27.778,119.200 28.000 C 119.200 28.220,118.300 28.400,117.200 28.400 C 116.100 28.400,115.200 28.580,115.200 28.800 C 115.200 29.020,114.480 29.200,113.600 29.200 C 112.720 29.200,112.000 29.380,112.000 29.600 C 112.000 29.820,111.370 30.000,110.600 30.000 C 109.830 30.000,109.200 30.180,109.200 30.400 C 109.200 30.620,108.660 30.800,108.000 30.800 C 107.340 30.800,106.800 30.980,106.800 31.200 C 106.800 31.420,106.260 31.600,105.600 31.600 C 104.940 31.600,104.400 31.780,104.400 32.000 C 104.400 32.220,103.860 32.400,103.200 32.400 C 102.540 32.400,102.000 32.580,102.000 32.800 C 102.000 33.020,101.460 33.200,100.800 33.200 C 100.140 33.200,99.600 33.380,99.600 33.600 C 99.600 33.820,99.240 34.000,98.800 34.000 C 98.360 34.000,98.000 34.180,98.000 34.400 C 98.000 34.620,97.665 34.800,97.256 34.800 C 96.454 34.800,91.487 37.205,91.267 37.700 C 91.193 37.865,90.788 38.000,90.367 38.000 C 89.945 38.000,89.600 38.180,89.600 38.400 C 89.600 38.620,89.240 38.800,88.800 38.800 C 88.360 38.800,88.000 38.980,88.000 39.200 C 88.000 39.420,87.680 39.600,87.288 39.600 C 86.897 39.600,86.317 39.960,86.000 40.400 C 85.683 40.840,85.103 41.200,84.712 41.200 C 84.320 41.200,84.000 41.380,84.000 41.600 C 84.000 41.820,83.640 42.000,83.200 42.000 C 82.760 42.000,82.400 42.145,82.400 42.323 C 82.400 42.501,81.680 42.964,80.800 43.352 C 79.920 43.740,79.200 44.225,79.200 44.429 C 79.200 44.633,79.009 44.800,78.777 44.800 C 78.343 44.800,75.480 46.906,74.400 48.019 C 74.070 48.359,73.172 49.077,72.405 49.614 C 71.638 50.150,70.135 51.447,69.065 52.495 C 67.995 53.543,66.951 54.400,66.746 54.400 C 66.225 54.400,63.600 57.078,63.600 57.610 C 63.600 57.851,63.453 57.956,63.273 57.845 C 63.093 57.734,62.688 58.020,62.373 58.482 C 61.685 59.490,60.006 61.403,57.700 63.807 C 56.765 64.781,56.000 65.781,56.000 66.029 C 56.000 66.277,55.460 66.983,54.800 67.600 C 54.140 68.217,53.600 68.937,53.600 69.200 C 53.600 69.463,53.060 70.183,52.400 70.800 C 51.740 71.417,51.200 72.209,51.200 72.560 C 51.200 72.912,51.050 73.200,50.868 73.200 C 50.685 73.200,50.281 73.695,49.970 74.300 C 49.660 74.905,49.133 75.670,48.800 76.000 C 48.467 76.330,47.931 77.140,47.609 77.800 C 47.288 78.460,46.558 79.720,45.987 80.600 C 45.416 81.480,44.454 83.280,43.849 84.600 C 43.244 85.920,42.611 87.270,42.442 87.600 C 42.273 87.930,41.885 89.055,41.580 90.100 C 41.275 91.145,40.885 92.000,40.713 92.000 C 40.541 92.000,40.400 92.360,40.400 92.800 C 40.400 93.240,40.220 93.600,40.000 93.600 C 39.780 93.600,39.600 94.050,39.600 94.600 C 39.600 95.150,39.420 95.600,39.200 95.600 C 38.980 95.600,38.800 96.140,38.800 96.800 C 38.800 97.460,38.620 98.000,38.400 98.000 C 38.180 98.000,38.000 98.540,38.000 99.200 C 38.000 99.860,37.820 100.400,37.600 100.400 C 37.380 100.400,37.200 100.929,37.200 101.576 C 37.200 102.223,37.020 102.864,36.800 103.000 C 36.580 103.136,36.400 103.867,36.400 104.624 C 36.400 105.381,36.220 106.000,36.000 106.000 C 35.780 106.000,35.600 106.720,35.600 107.600 C 35.600 108.480,35.420 109.200,35.200 109.200 C 34.980 109.200,34.800 110.010,34.800 111.000 C 34.800 111.990,34.620 112.800,34.400 112.800 C 34.178 112.800,34.000 113.859,34.000 115.176 C 34.000 116.483,33.820 117.664,33.600 117.800 C 33.374 117.939,33.200 119.879,33.200 122.247 C 33.200 124.662,33.046 126.352,32.837 126.223 C 32.626 126.092,32.451 128.586,32.421 132.166 C 32.388 136.058,32.522 138.428,32.784 138.590 C 33.029 138.742,33.200 140.565,33.200 143.024 C 33.200 145.541,33.359 147.200,33.600 147.200 C 33.822 147.200,34.000 148.267,34.000 149.600 C 34.000 150.933,34.178 152.000,34.400 152.000 C 34.620 152.000,34.800 152.900,34.800 154.000 C 34.800 155.100,34.980 156.000,35.200 156.000 C 35.420 156.000,35.600 156.619,35.600 157.376 C 35.600 158.133,35.780 158.864,36.000 159.000 C 36.220 159.136,36.400 159.867,36.400 160.624 C 36.400 161.381,36.580 162.000,36.800 162.000 C 37.020 162.000,37.200 162.540,37.200 163.200 C 37.200 163.860,37.380 164.400,37.600 164.400 C 37.820 164.400,38.000 164.940,38.000 165.600 C 38.000 166.260,38.180 166.800,38.400 166.800 C 38.620 166.800,38.800 167.340,38.800 168.000 C 38.800 168.660,38.980 169.200,39.200 169.200 C 39.433 169.200,39.600 170.525,39.600 172.376 C 39.600 174.123,39.780 175.664,40.000 175.800 C 40.520 176.122,40.520 177.600,40.000 177.600 C 39.751 177.600,39.600 179.867,39.600 183.600 C 39.600 187.333,39.449 189.600,39.200 189.600 C 38.974 189.600,38.800 190.733,38.800 192.200 C 38.800 193.667,38.626 194.800,38.400 194.800 C 38.180 194.800,38.000 195.700,38.000 196.800 C 38.000 197.900,37.820 198.800,37.600 198.800 C 37.380 198.800,37.200 199.509,37.200 200.376 C 37.200 201.243,37.020 202.064,36.800 202.200 C 36.580 202.336,36.400 203.067,36.400 203.824 C 36.400 204.581,36.220 205.200,36.000 205.200 C 35.780 205.200,35.600 205.740,35.600 206.400 C 35.600 207.060,35.420 207.600,35.200 207.600 C 34.980 207.600,34.800 208.050,34.800 208.600 C 34.800 209.150,34.620 209.600,34.400 209.600 C 34.180 209.600,34.000 209.865,34.000 210.188 C 34.000 210.511,33.640 211.417,33.200 212.200 C 32.760 212.983,32.400 213.979,32.400 214.412 C 32.400 214.845,32.220 215.200,32.000 215.200 C 31.780 215.200,31.600 215.436,31.600 215.725 C 31.600 216.013,31.240 216.636,30.800 217.108 C 30.360 217.580,30.000 218.244,30.000 218.583 C 30.000 218.922,29.832 219.200,29.627 219.200 C 29.422 219.200,29.138 219.566,28.996 220.013 C 28.854 220.460,28.294 221.270,27.751 221.813 C 27.208 222.356,26.869 222.800,26.998 222.800 C 27.307 222.800,26.665 223.549,23.900 226.410 C 22.635 227.719,21.600 229.052,21.600 229.372 C 21.600 229.691,21.420 230.064,21.200 230.200 C 20.679 230.522,20.679 234.278,21.200 234.600 C 21.420 234.736,21.600 235.207,21.600 235.647 C 21.600 236.087,21.780 236.336,22.000 236.200 C 22.220 236.064,22.400 236.156,22.400 236.405 C 22.400 236.971,23.231 237.759,24.010 237.930 C 24.334 238.001,24.660 238.226,24.733 238.430 C 24.807 238.633,25.651 238.800,26.610 238.800 C 27.568 238.800,28.464 238.980,28.600 239.200 C 28.736 239.420,29.748 239.600,30.850 239.600 C 31.951 239.600,33.221 239.797,33.672 240.039 C 34.739 240.610,58.601 240.657,59.308 240.090 C 59.578 239.873,60.880 239.582,62.200 239.444 C 67.176 238.923,68.400 238.709,68.400 238.360 C 68.400 238.162,69.120 238.000,70.000 238.000 C 70.880 238.000,71.600 237.820,71.600 237.600 C 71.600 237.380,72.230 237.200,73.000 237.200 C 73.770 237.200,74.400 237.020,74.400 236.800 C 74.400 236.580,74.839 236.400,75.376 236.400 C 75.913 236.400,76.464 236.220,76.600 236.000 C 76.736 235.780,77.377 235.600,78.024 235.600 C 78.671 235.600,79.200 235.420,79.200 235.200 C 79.200 234.980,79.560 234.800,80.000 234.800 C 80.440 234.800,80.800 234.620,80.800 234.400 C 80.800 234.180,81.340 234.000,82.000 234.000 C 82.660 234.000,83.200 233.820,83.200 233.600 C 83.200 233.380,83.560 233.200,84.000 233.200 C 84.440 233.200,84.800 233.020,84.800 232.800 C 84.800 232.580,85.160 232.400,85.600 232.400 C 86.040 232.400,86.400 232.220,86.400 232.000 C 86.400 231.780,86.760 231.600,87.200 231.600 C 87.640 231.600,88.001 231.465,88.001 231.300 C 88.002 231.135,88.992 230.550,90.200 230.000 C 91.408 229.450,92.398 228.865,92.399 228.700 C 92.401 228.163,93.545 228.383,95.000 229.200 C 95.783 229.640,96.779 230.000,97.212 230.000 C 97.645 230.000,98.000 230.180,98.000 230.400 C 98.000 230.620,98.360 230.800,98.800 230.800 C 99.240 230.800,99.600 230.980,99.600 231.200 C 99.600 231.420,100.140 231.600,100.800 231.600 C 101.460 231.600,102.000 231.780,102.000 232.000 C 102.000 232.220,102.540 232.400,103.200 232.400 C 103.860 232.400,104.400 232.580,104.400 232.800 C 104.400 233.020,104.940 233.200,105.600 233.200 C 106.260 233.200,106.800 233.380,106.800 233.600 C 106.800 233.820,107.340 234.000,108.000 234.000 C 108.660 234.000,109.200 234.180,109.200 234.400 C 109.200 234.620,109.819 234.800,110.576 234.800 C 111.333 234.800,112.064 234.980,112.200 235.200 C 112.336 235.420,113.056 235.600,113.800 235.600 C 114.544 235.600,115.264 235.780,115.400 236.000 C 115.536 236.220,116.436 236.400,117.400 236.400 C 118.364 236.400,119.264 236.580,119.400 236.800 C 119.536 237.020,120.796 237.200,122.200 237.200 C 123.604 237.200,124.864 237.380,125.000 237.600 C 125.136 237.821,126.930 238.000,129.000 238.000 C 131.064 238.000,132.852 238.161,132.974 238.357 C 133.294 238.875,143.071 238.932,143.389 238.417 C 143.543 238.169,145.415 238.000,148.024 238.000 C 150.675 238.000,152.400 237.842,152.400 237.600 C 152.400 237.378,153.459 237.200,154.776 237.200 C 156.083 237.200,157.264 237.020,157.400 236.800 C 157.536 236.580,158.177 236.400,158.824 236.400 C 159.603 236.400,160.000 236.197,160.000 235.800 C 160.000 235.470,160.143 235.200,160.317 235.200 C 160.491 235.200,160.861 234.352,161.138 233.316 C 168.468 205.911,193.898 178.548,222.600 167.183 C 227.578 165.211,230.171 164.380,236.019 162.881 C 238.777 162.175,240.753 161.321,240.831 160.804 C 240.847 160.692,240.940 160.240,241.036 159.800 C 241.132 159.360,241.324 158.140,241.462 157.088 C 241.601 156.037,241.869 155.081,242.057 154.965 C 242.246 154.848,242.400 153.964,242.400 153.000 C 242.400 152.036,242.580 151.136,242.800 151.000 C 243.020 150.864,243.203 149.368,243.206 147.676 C 243.210 145.542,243.331 144.784,243.600 145.200 C 243.855 145.594,243.990 141.314,243.994 132.724 C 243.998 124.431,243.854 119.557,243.600 119.400 C 243.380 119.264,243.200 117.903,243.200 116.376 C 243.200 114.792,243.028 113.600,242.800 113.600 C 242.580 113.600,242.400 112.801,242.400 111.824 C 242.400 110.847,242.238 109.947,242.041 109.825 C 241.843 109.703,241.555 108.342,241.400 106.800 C 241.245 105.258,240.957 103.897,240.759 103.775 C 240.562 103.653,240.400 103.023,240.400 102.376 C 240.400 101.729,240.261 101.200,240.091 101.200 C 239.921 101.200,239.545 100.183,239.256 98.939 C 238.967 97.695,238.587 96.390,238.412 96.039 C 238.237 95.688,237.871 94.860,237.600 94.200 C 237.329 93.540,236.948 92.687,236.753 92.305 C 236.559 91.923,236.400 91.338,236.400 91.005 C 236.400 90.672,236.220 90.400,236.000 90.400 C 235.780 90.400,235.600 90.040,235.600 89.600 C 235.600 89.160,235.464 88.800,235.298 88.800 C 235.132 88.800,234.793 88.215,234.546 87.500 C 233.625 84.841,232.987 83.386,232.526 82.898 C 232.266 82.621,231.938 82.036,231.799 81.598 C 231.660 81.159,231.378 80.800,231.173 80.800 C 230.968 80.800,230.800 80.440,230.800 80.000 C 230.800 79.560,230.620 79.200,230.400 79.200 C 230.180 79.200,230.000 78.840,230.000 78.400 C 230.000 77.960,229.820 77.600,229.600 77.600 C 229.380 77.600,229.200 77.330,229.200 77.000 C 229.200 76.670,229.050 76.400,228.868 76.400 C 228.685 76.400,228.281 75.905,227.970 75.300 C 227.660 74.695,227.089 73.909,226.703 73.553 C 226.316 73.197,226.000 72.694,226.000 72.436 C 226.000 72.177,225.550 71.480,225.000 70.887 C 224.450 70.293,224.000 69.608,224.000 69.363 C 224.000 69.119,223.460 68.354,222.800 67.663 C 222.140 66.972,221.600 66.226,221.600 66.004 C 221.600 65.782,221.420 65.600,221.200 65.600 C 220.980 65.600,220.800 65.429,220.800 65.220 C 220.800 64.632,210.268 53.586,209.762 53.644 C 209.642 53.658,208.981 53.203,208.294 52.634 C 207.608 52.065,207.198 51.600,207.384 51.600 C 207.570 51.600,207.350 51.285,206.895 50.900 C 204.802 49.129,204.378 48.800,204.192 48.800 C 204.082 48.800,203.428 48.260,202.737 47.600 C 202.046 46.940,201.278 46.400,201.029 46.400 C 200.780 46.400,200.317 46.040,200.000 45.600 C 199.683 45.160,199.186 44.800,198.895 44.800 C 198.604 44.800,197.980 44.440,197.508 44.000 C 197.036 43.560,196.413 43.200,196.125 43.200 C 195.836 43.200,195.600 43.055,195.600 42.877 C 195.600 42.546,192.834 41.200,192.154 41.200 C 191.946 41.200,191.517 40.840,191.200 40.400 C 190.883 39.960,190.293 39.600,189.888 39.600 C 189.484 39.600,189.264 39.420,189.400 39.200 C 189.536 38.980,189.277 38.800,188.824 38.800 C 188.371 38.800,188.000 38.620,188.000 38.400 C 188.000 38.180,187.640 38.000,187.200 38.000 C 186.760 38.000,186.400 37.820,186.400 37.600 C 186.400 37.380,186.040 37.200,185.600 37.200 C 185.160 37.200,184.800 37.020,184.800 36.800 C 184.800 36.580,184.440 36.400,184.000 36.400 C 183.560 36.400,183.200 36.220,183.200 36.000 C 183.200 35.780,182.840 35.600,182.400 35.600 C 181.960 35.600,181.600 35.420,181.600 35.200 C 181.600 34.980,181.060 34.800,180.400 34.800 C 179.740 34.800,179.200 34.620,179.200 34.400 C 179.200 34.180,178.840 34.000,178.400 34.000 C 177.960 34.000,177.600 33.820,177.600 33.600 C 177.600 33.380,177.060 33.200,176.400 33.200 C 175.740 33.200,175.200 33.020,175.200 32.800 C 175.200 32.580,174.750 32.400,174.200 32.400 C 173.650 32.400,173.200 32.220,173.200 32.000 C 173.200 31.780,172.671 31.600,172.024 31.600 C 171.377 31.600,170.736 31.420,170.600 31.200 C 170.464 30.980,169.913 30.800,169.376 30.800 C 168.839 30.800,168.400 30.620,168.400 30.400 C 168.400 30.180,167.680 30.000,166.800 30.000 C 165.920 30.000,165.200 29.820,165.200 29.600 C 165.200 29.380,164.480 29.200,163.600 29.200 C 162.720 29.200,162.000 29.020,162.000 28.800 C 162.000 28.580,161.111 28.400,160.024 28.400 C 158.937 28.400,157.936 28.220,157.800 28.000 C 157.664 27.780,156.674 27.600,155.600 27.600 C 154.526 27.600,153.550 27.442,153.431 27.249 C 153.311 27.057,151.373 26.867,149.123 26.828 C 146.872 26.790,144.844 26.606,144.616 26.420 C 144.057 25.966,133.567 25.950,132.773 26.402 M131.200 84.800 L 131.400 91.800 159.400 92.000 L 187.400 92.200 187.515 98.200 C 187.578 101.500,187.530 104.604,187.408 105.097 L 187.186 105.995 159.293 106.097 L 131.400 106.200 131.400 110.559 L 131.400 114.918 137.400 114.843 C 169.923 114.436,191.185 130.279,189.043 153.324 C 187.592 168.936,178.250 181.091,162.911 187.324 C 160.541 188.287,153.631 190.170,153.390 189.919 C 153.215 189.736,150.800 184.404,150.800 184.200 C 150.800 184.101,150.292 182.891,149.670 181.510 C 147.230 176.086,147.194 175.639,149.200 175.601 C 151.375 175.560,158.716 172.397,162.201 169.999 C 171.431 163.649,174.891 149.811,169.503 140.795 C 167.814 137.967,167.354 138.026,164.781 141.400 C 157.144 151.413,148.454 160.569,138.200 169.406 C 133.395 173.548,126.167 178.392,120.600 181.201 C 116.779 183.129,114.649 183.949,109.040 185.649 C 106.703 186.357,99.129 186.065,96.374 185.160 C 80.542 179.963,77.049 155.706,89.440 137.000 C 94.056 130.030,102.039 123.951,112.511 119.432 L 114.821 118.435 114.711 112.317 L 114.600 106.200 99.200 106.000 L 83.800 105.800 83.800 99.000 L 83.800 92.200 99.000 92.000 L 114.200 91.800 114.424 84.800 C 114.547 80.950,114.682 77.751,114.724 77.692 C 114.766 77.632,118.445 77.632,122.900 77.692 L 131.000 77.800 131.200 84.800 M134.600 128.745 C 132.840 128.898,131.175 129.163,130.900 129.335 C 130.303 129.708,130.159 156.000,130.754 156.000 C 132.419 156.000,154.000 132.260,154.000 130.429 C 154.000 130.201,153.505 129.911,152.900 129.785 C 152.295 129.658,151.071 129.391,150.179 129.191 C 147.913 128.684,138.438 128.413,134.600 128.745 M113.000 135.469 C 108.122 138.057,101.411 145.944,99.970 150.784 C 95.303 166.449,100.740 174.638,112.298 169.353 C 115.432 167.920,115.200 169.375,115.200 151.138 C 115.200 133.456,115.310 134.243,113.000 135.469 M247.674 209.300 C 247.243 210.455,245.683 214.910,244.207 219.200 C 238.669 235.304,236.367 241.965,234.392 247.600 C 233.274 250.790,231.841 254.930,231.208 256.800 C 230.575 258.670,229.484 261.820,228.783 263.800 C 228.082 265.780,226.551 270.190,225.380 273.600 C 224.210 277.010,222.151 282.950,220.806 286.800 C 219.460 290.650,217.837 295.330,217.199 297.200 C 216.560 299.070,214.749 304.290,213.174 308.800 C 211.599 313.310,210.219 317.405,210.108 317.900 L 209.907 318.800 222.302 318.800 L 234.697 318.800 238.873 306.100 L 243.049 293.400 263.275 293.296 L 283.500 293.193 283.939 294.296 C 284.181 294.903,286.106 300.665,288.218 307.100 L 292.057 318.800 304.229 318.800 C 318.367 318.800,317.109 319.432,314.981 313.400 C 314.204 311.200,312.332 305.800,310.821 301.400 C 309.309 297.000,306.699 289.440,305.019 284.600 C 303.340 279.760,301.261 273.730,300.399 271.200 C 299.537 268.670,297.402 262.460,295.653 257.400 C 293.904 252.340,290.919 243.700,289.019 238.200 C 287.118 232.700,284.935 226.310,284.166 224.000 C 283.398 221.690,282.606 219.440,282.406 219.000 C 282.206 218.560,281.480 216.490,280.792 214.400 C 280.105 212.310,279.261 209.835,278.917 208.900 L 278.291 207.200 263.374 207.200 L 248.457 207.200 247.674 209.300 M267.199 242.500 C 269.006 248.055,270.989 254.130,271.607 256.000 C 275.831 268.787,277.585 274.501,277.384 274.826 C 277.140 275.221,249.905 275.371,249.513 274.979 C 249.391 274.858,249.612 273.823,250.003 272.679 C 250.936 269.954,258.684 246.062,260.796 239.400 C 262.771 233.167,263.073 232.400,263.549 232.400 C 263.750 232.400,265.393 236.945,267.199 242.500 " stroke="none" fill="#677b94" fill-rule="evenodd"></path><path id="path1" d="M114.724 77.692 C 114.682 77.751,114.547 80.950,114.424 84.800 L 114.200 91.800 99.000 92.000 L 83.800 92.200 83.800 99.000 L 83.800 105.800 99.200 106.000 L 114.600 106.200 114.711 112.317 L 114.821 118.435 112.511 119.432 C 96.917 126.162,86.777 136.723,83.544 149.600 C 79.224 166.807,84.431 181.240,96.374 185.160 C 99.129 186.065,106.703 186.357,109.040 185.649 C 114.649 183.949,116.779 183.129,120.600 181.201 C 126.167 178.392,133.395 173.548,138.200 169.406 C 148.454 160.569,157.144 151.413,164.781 141.400 C 167.354 138.026,167.814 137.967,169.503 140.795 C 174.891 149.811,171.431 163.649,162.201 169.999 C 158.716 172.397,151.375 175.560,149.200 175.601 C 147.194 175.639,147.230 176.086,149.670 181.510 C 150.292 182.891,150.800 184.101,150.800 184.200 C 150.800 184.404,153.215 189.736,153.390 189.919 C 153.453 189.984,155.061 189.655,156.964 189.186 C 192.571 180.421,201.025 136.560,170.037 121.360 C 160.623 116.742,150.305 114.681,137.400 114.843 L 131.400 114.918 131.400 110.559 L 131.400 106.200 159.293 106.097 L 187.186 105.995 187.408 105.097 C 187.530 104.604,187.578 101.500,187.515 98.200 L 187.400 92.200 159.400 92.000 L 131.400 91.800 131.200 84.800 L 131.000 77.800 122.900 77.692 C 118.445 77.632,114.766 77.632,114.724 77.692 M150.179 129.191 C 151.071 129.391,152.295 129.658,152.900 129.785 C 153.505 129.911,154.000 130.201,154.000 130.429 C 154.000 132.260,132.419 156.000,130.754 156.000 C 130.159 156.000,130.303 129.708,130.900 129.335 C 132.310 128.454,146.416 128.349,150.179 129.191 M115.200 151.138 C 115.200 169.375,115.432 167.920,112.298 169.353 C 100.740 174.638,95.303 166.449,99.970 150.784 C 101.411 145.944,108.122 138.057,113.000 135.469 C 115.310 134.243,115.200 133.456,115.200 151.138 M252.800 159.216 C 252.030 159.390,250.140 159.637,248.600 159.766 C 242.781 160.254,241.369 160.512,240.285 161.283 C 239.672 161.719,237.782 162.431,236.085 162.865 C 230.174 164.379,227.599 165.203,222.600 167.183 C 193.898 178.548,168.468 205.911,161.138 233.316 C 160.861 234.352,160.491 235.200,160.317 235.200 C 160.143 235.200,160.000 235.405,160.000 235.656 C 160.000 235.907,159.727 236.312,159.394 236.556 C 159.009 236.838,158.695 237.992,158.535 239.713 C 158.396 241.205,158.128 242.521,157.941 242.636 C 157.753 242.752,157.600 243.647,157.600 244.624 C 157.600 245.601,157.420 246.400,157.200 246.400 C 156.971 246.400,156.800 247.600,156.800 249.200 C 156.800 250.800,156.629 252.000,156.400 252.000 C 156.141 252.000,156.000 256.667,156.000 265.200 C 156.000 273.733,156.141 278.400,156.400 278.400 C 156.622 278.400,156.800 279.459,156.800 280.776 C 156.800 282.083,156.980 283.264,157.200 283.400 C 157.420 283.536,157.600 284.507,157.600 285.557 C 157.600 286.607,157.735 287.601,157.900 287.765 C 158.162 288.025,158.480 289.522,159.459 295.100 C 159.585 295.815,159.848 296.400,160.044 296.400 C 160.240 296.400,160.400 296.940,160.400 297.600 C 160.400 298.260,160.580 298.800,160.800 298.800 C 161.020 298.800,161.200 299.340,161.200 300.000 C 161.200 300.660,161.380 301.200,161.600 301.200 C 161.820 301.200,162.000 301.639,162.000 302.176 C 162.000 302.713,162.180 303.264,162.400 303.400 C 162.620 303.536,162.800 303.997,162.800 304.424 C 162.800 304.851,162.980 305.200,163.200 305.200 C 163.420 305.200,163.600 305.650,163.600 306.200 C 163.600 306.750,163.780 307.200,164.000 307.200 C 164.220 307.200,164.400 307.560,164.400 308.000 C 164.400 308.440,164.580 308.800,164.800 308.800 C 165.020 308.800,165.200 309.160,165.200 309.600 C 165.200 310.040,165.380 310.400,165.600 310.400 C 165.820 310.400,166.000 310.760,166.000 311.200 C 166.000 311.640,166.180 312.000,166.400 312.000 C 166.620 312.000,166.800 312.360,166.800 312.800 C 166.800 313.240,166.980 313.600,167.200 313.600 C 167.420 313.600,167.600 313.960,167.600 314.400 C 167.600 314.840,167.780 315.200,168.000 315.200 C 168.220 315.200,168.400 315.560,168.400 316.000 C 168.400 316.440,168.580 316.800,168.800 316.800 C 169.020 316.800,169.200 317.036,169.200 317.325 C 169.200 317.613,169.560 318.236,170.000 318.708 C 170.440 319.180,170.800 319.844,170.800 320.183 C 170.800 320.522,170.980 320.800,171.200 320.800 C 171.420 320.800,171.600 321.070,171.600 321.400 C 171.600 321.730,171.780 322.000,172.000 322.000 C 172.220 322.000,172.400 322.270,172.400 322.600 C 172.400 322.930,172.580 323.200,172.800 323.200 C 173.020 323.200,173.200 323.404,173.200 323.653 C 173.200 323.902,173.515 324.397,173.900 324.753 C 174.285 325.109,174.951 326.030,175.380 326.800 C 175.809 327.570,176.484 328.549,176.880 328.975 C 177.276 329.402,177.600 329.890,177.600 330.060 C 177.600 330.230,178.320 331.082,179.200 331.953 C 180.080 332.824,180.800 333.719,180.800 333.941 C 180.800 334.498,192.088 345.600,192.654 345.600 C 192.778 345.600,193.356 346.102,193.940 346.715 C 194.523 347.329,195.630 348.265,196.400 348.796 C 197.170 349.328,198.091 350.086,198.447 350.481 C 198.803 350.876,199.388 351.200,199.747 351.200 C 200.106 351.200,200.400 351.338,200.400 351.506 C 200.400 351.674,201.120 352.256,202.000 352.800 C 202.880 353.344,203.600 353.926,203.600 354.094 C 203.600 354.262,203.920 354.400,204.312 354.400 C 204.703 354.400,205.283 354.760,205.600 355.200 C 205.917 355.640,206.497 356.000,206.888 356.000 C 207.280 356.000,207.600 356.140,207.600 356.310 C 207.600 356.481,208.408 356.976,209.396 357.410 C 210.384 357.845,211.194 358.335,211.196 358.500 C 211.198 358.665,211.560 358.800,212.000 358.800 C 212.440 358.800,212.800 358.980,212.800 359.200 C 212.800 359.420,213.160 359.600,213.600 359.600 C 214.040 359.600,214.400 359.780,214.400 360.000 C 214.400 360.220,214.760 360.400,215.200 360.400 C 215.640 360.400,216.000 360.580,216.000 360.800 C 216.000 361.020,216.360 361.200,216.800 361.200 C 217.240 361.200,217.600 361.380,217.600 361.600 C 217.600 361.820,217.949 362.000,218.376 362.000 C 218.803 362.000,219.264 362.180,219.400 362.400 C 219.536 362.620,220.087 362.800,220.624 362.800 C 221.161 362.800,221.600 362.980,221.600 363.200 C 221.600 363.420,221.960 363.600,222.400 363.600 C 222.840 363.600,223.200 363.780,223.200 364.000 C 223.200 364.220,223.740 364.400,224.400 364.400 C 225.060 364.400,225.600 364.580,225.600 364.800 C 225.600 365.020,226.050 365.200,226.600 365.200 C 227.150 365.200,227.600 365.380,227.600 365.600 C 227.600 365.820,228.140 366.000,228.800 366.000 C 229.460 366.000,230.000 366.180,230.000 366.400 C 230.000 366.620,230.529 366.800,231.176 366.800 C 231.823 366.800,232.464 366.980,232.600 367.200 C 232.736 367.420,233.467 367.600,234.224 367.600 C 234.981 367.600,235.600 367.780,235.600 368.000 C 235.600 368.220,236.309 368.400,237.176 368.400 C 238.043 368.400,238.864 368.580,239.000 368.800 C 239.136 369.020,240.126 369.200,241.200 369.200 C 242.274 369.200,243.264 369.380,243.400 369.600 C 243.536 369.820,244.706 370.000,246.000 370.000 C 247.294 370.000,248.464 370.180,248.600 370.400 C 248.937 370.946,273.863 370.946,274.200 370.400 C 274.336 370.180,275.596 370.000,277.000 370.000 C 278.404 370.000,279.664 369.820,279.800 369.600 C 279.936 369.380,280.836 369.200,281.800 369.200 C 282.764 369.200,283.664 369.020,283.800 368.800 C 283.936 368.580,284.757 368.400,285.624 368.400 C 286.491 368.400,287.200 368.220,287.200 368.000 C 287.200 367.780,287.742 367.600,288.405 367.600 C 289.068 367.600,289.923 367.442,290.305 367.249 C 291.472 366.660,293.808 366.000,294.728 366.000 C 295.208 366.000,295.600 365.820,295.600 365.600 C 295.600 365.380,296.039 365.200,296.576 365.200 C 297.113 365.200,297.664 365.020,297.800 364.800 C 297.936 364.580,298.397 364.400,298.824 364.400 C 299.251 364.400,299.600 364.220,299.600 364.000 C 299.600 363.780,300.140 363.600,300.800 363.600 C 301.460 363.600,302.000 363.420,302.000 363.200 C 302.000 362.980,302.360 362.800,302.800 362.800 C 303.240 362.800,303.600 362.620,303.600 362.400 C 303.600 362.180,303.960 362.000,304.400 362.000 C 304.840 362.000,305.200 361.820,305.200 361.600 C 305.200 360.885,308.063 361.151,308.753 361.930 C 309.109 362.332,309.985 362.916,310.700 363.228 C 311.415 363.540,312.000 363.931,312.000 364.098 C 312.000 364.264,312.360 364.400,312.800 364.400 C 313.240 364.400,313.600 364.580,313.600 364.800 C 313.600 365.020,313.960 365.200,314.400 365.200 C 314.840 365.200,315.200 365.380,315.200 365.600 C 315.200 365.820,315.740 366.000,316.400 366.000 C 317.060 366.000,317.600 366.180,317.600 366.400 C 317.600 366.620,317.960 366.800,318.400 366.800 C 318.840 366.800,319.200 366.980,319.200 367.200 C 319.200 367.420,319.740 367.600,320.400 367.600 C 321.060 367.600,321.600 367.780,321.600 368.000 C 321.600 368.220,322.140 368.400,322.800 368.400 C 323.460 368.400,324.000 368.580,324.000 368.800 C 324.000 369.020,324.439 369.200,324.976 369.200 C 325.513 369.200,326.064 369.380,326.200 369.600 C 326.336 369.820,326.966 370.000,327.600 370.000 C 328.234 370.000,328.864 370.180,329.000 370.400 C 329.136 370.620,329.831 370.800,330.544 370.800 C 331.257 370.800,332.011 370.962,332.220 371.159 C 332.429 371.356,333.410 371.632,334.400 371.771 C 335.390 371.910,337.460 372.218,339.000 372.456 C 342.865 373.052,364.412 373.348,364.948 372.812 C 365.175 372.585,366.483 372.400,367.856 372.400 C 369.229 372.400,370.464 372.220,370.600 372.000 C 370.736 371.780,371.647 371.600,372.624 371.600 C 373.601 371.600,374.400 371.420,374.400 371.200 C 374.400 370.980,374.760 370.800,375.200 370.800 C 375.640 370.800,376.000 370.620,376.000 370.400 C 376.000 370.180,376.315 369.999,376.700 369.997 C 377.377 369.994,378.400 368.383,378.400 367.320 C 378.400 367.034,378.580 366.800,378.800 366.800 C 379.020 366.800,379.200 366.001,379.200 365.024 C 379.200 364.047,379.020 363.136,378.800 363.000 C 378.580 362.864,378.400 362.403,378.400 361.976 C 378.400 361.549,378.220 361.200,378.000 361.200 C 377.780 361.200,377.600 360.996,377.600 360.747 C 377.600 360.244,376.071 358.800,375.539 358.800 C 375.352 358.800,375.200 358.621,375.200 358.403 C 375.200 357.999,374.119 356.620,372.500 354.959 C 372.005 354.452,371.600 353.798,371.600 353.506 C 371.600 353.215,371.240 352.717,370.800 352.400 C 370.360 352.083,370.000 351.518,370.000 351.145 C 370.000 350.772,369.864 350.407,369.698 350.333 C 369.532 350.260,368.768 348.940,368.000 347.400 C 367.232 345.860,366.468 344.540,366.302 344.467 C 366.136 344.393,366.000 343.808,366.000 343.167 C 366.000 342.525,365.820 342.000,365.600 342.000 C 365.380 342.000,365.200 341.640,365.200 341.200 C 365.200 340.760,365.020 340.400,364.800 340.400 C 364.580 340.400,364.400 339.781,364.400 339.024 C 364.400 338.267,364.220 337.536,364.000 337.400 C 363.780 337.264,363.600 336.623,363.600 335.976 C 363.600 335.329,363.420 334.800,363.200 334.800 C 362.980 334.800,362.800 334.080,362.800 333.200 C 362.800 332.320,362.620 331.600,362.400 331.600 C 362.180 331.600,362.000 330.711,362.000 329.624 C 362.000 328.537,361.820 327.536,361.600 327.400 C 361.380 327.264,361.200 326.098,361.200 324.810 C 361.200 323.521,361.027 322.407,360.816 322.333 C 360.599 322.258,360.408 319.725,360.377 316.500 C 360.346 313.365,360.159 310.800,359.961 310.800 C 359.467 310.800,359.502 308.508,360.000 308.200 C 360.220 308.064,360.400 306.613,360.400 304.976 C 360.400 303.259,360.569 302.000,360.800 302.000 C 361.020 302.000,361.200 301.460,361.200 300.800 C 361.200 300.140,361.380 299.600,361.600 299.600 C 361.820 299.600,362.000 299.060,362.000 298.400 C 362.000 297.740,362.180 297.200,362.400 297.200 C 362.620 297.200,362.800 296.660,362.800 296.000 C 362.800 295.340,362.980 294.800,363.200 294.800 C 363.420 294.800,363.600 294.080,363.600 293.200 C 363.600 292.320,363.780 291.600,364.000 291.600 C 364.220 291.600,364.400 290.970,364.400 290.200 C 364.400 289.430,364.580 288.800,364.800 288.800 C 365.020 288.800,365.200 287.900,365.200 286.800 C 365.200 285.700,365.380 284.800,365.600 284.800 C 365.822 284.800,366.000 283.741,366.000 282.424 C 366.000 281.117,366.180 279.936,366.400 279.800 C 366.623 279.662,366.800 277.796,366.800 275.576 C 366.800 273.192,366.960 271.600,367.200 271.600 C 367.450 271.600,367.600 269.208,367.600 265.224 C 367.600 261.404,367.440 258.748,367.200 258.600 C 366.980 258.464,366.800 256.754,366.800 254.800 C 366.800 252.846,366.620 251.136,366.400 251.000 C 366.180 250.864,366.000 249.593,366.000 248.176 C 366.000 246.725,365.825 245.600,365.600 245.600 C 365.380 245.600,365.200 244.790,365.200 243.800 C 365.200 242.810,365.020 242.000,364.800 242.000 C 364.580 242.000,364.400 241.280,364.400 240.400 C 364.400 239.520,364.220 238.800,364.000 238.800 C 363.780 238.800,363.600 238.080,363.600 237.200 C 363.600 236.320,363.420 235.600,363.200 235.600 C 362.980 235.600,362.800 235.060,362.800 234.400 C 362.800 233.740,362.620 233.200,362.400 233.200 C 362.180 233.200,362.000 232.660,362.000 232.000 C 362.000 231.340,361.820 230.800,361.600 230.800 C 361.380 230.800,361.200 230.361,361.200 229.824 C 361.200 229.287,361.020 228.736,360.800 228.600 C 360.580 228.464,360.400 227.913,360.400 227.376 C 360.400 226.839,360.220 226.400,360.000 226.400 C 359.780 226.400,359.600 226.040,359.600 225.600 C 359.600 225.160,359.420 224.800,359.200 224.800 C 358.980 224.800,358.800 224.260,358.800 223.600 C 358.800 222.940,358.620 222.400,358.400 222.400 C 358.180 222.400,357.999 222.085,357.998 221.700 C 357.997 221.315,357.547 220.114,356.998 219.032 C 356.449 217.950,356.000 216.907,356.000 216.715 C 356.000 216.524,355.640 215.980,355.200 215.508 C 354.760 215.036,354.400 214.357,354.400 214.000 C 354.400 213.643,354.040 212.964,353.600 212.492 C 353.160 212.020,352.800 211.356,352.800 211.017 C 352.800 210.678,352.620 210.400,352.400 210.400 C 352.180 210.400,352.000 210.170,352.000 209.888 C 352.000 209.607,351.640 209.117,351.200 208.800 C 350.760 208.483,350.400 207.903,350.400 207.512 C 350.400 207.120,350.250 206.800,350.068 206.800 C 349.885 206.800,349.481 206.305,349.170 205.700 C 348.860 205.095,348.289 204.309,347.903 203.953 C 347.516 203.597,347.200 203.084,347.200 202.814 C 347.200 202.543,346.660 201.817,346.000 201.200 C 345.340 200.583,344.800 199.867,344.800 199.608 C 344.800 199.349,344.125 198.476,343.300 197.669 C 342.475 196.861,341.320 195.557,340.734 194.771 C 339.220 192.741,333.262 186.761,331.600 185.602 C 330.830 185.065,329.539 183.945,328.731 183.113 C 327.924 182.281,327.095 181.600,326.891 181.600 C 326.686 181.600,325.954 181.060,325.263 180.400 C 324.572 179.740,323.841 179.200,323.637 179.200 C 323.433 179.200,323.207 179.042,323.133 178.850 C 322.935 178.328,317.346 174.800,316.718 174.800 C 316.420 174.800,315.917 174.440,315.600 174.000 C 315.283 173.560,314.703 173.200,314.312 173.200 C 313.920 173.200,313.600 173.020,313.600 172.800 C 313.600 172.580,313.240 172.400,312.800 172.400 C 312.360 172.400,312.000 172.220,312.000 172.000 C 312.000 171.780,311.640 171.600,311.200 171.600 C 310.760 171.600,310.400 171.420,310.400 171.200 C 310.400 170.980,310.040 170.800,309.600 170.800 C 309.160 170.800,308.800 170.620,308.800 170.400 C 308.800 170.180,308.530 170.000,308.200 170.000 C 307.870 170.000,307.600 169.820,307.600 169.600 C 307.600 169.380,307.240 169.200,306.800 169.200 C 306.360 169.200,306.000 169.020,306.000 168.800 C 306.000 168.580,305.640 168.400,305.200 168.400 C 304.760 168.400,304.400 168.220,304.400 168.000 C 304.400 167.780,304.040 167.600,303.600 167.600 C 303.160 167.600,302.800 167.420,302.800 167.200 C 302.800 166.980,302.260 166.800,301.600 166.800 C 300.940 166.800,300.400 166.620,300.400 166.400 C 300.400 166.180,300.040 166.000,299.600 166.000 C 299.160 166.000,298.800 165.820,298.800 165.600 C 298.800 165.380,298.260 165.200,297.600 165.200 C 296.940 165.200,296.400 165.020,296.400 164.800 C 296.400 164.580,295.860 164.400,295.200 164.400 C 294.540 164.400,294.000 164.220,294.000 164.000 C 294.000 163.780,293.471 163.600,292.824 163.600 C 292.177 163.600,291.536 163.420,291.400 163.200 C 291.264 162.980,290.533 162.800,289.776 162.800 C 289.019 162.800,288.400 162.620,288.400 162.400 C 288.400 162.180,287.781 162.000,287.024 162.000 C 286.267 162.000,285.536 161.820,285.400 161.600 C 285.264 161.380,284.353 161.200,283.376 161.200 C 282.399 161.200,281.600 161.020,281.600 160.800 C 281.600 160.580,280.646 160.400,279.480 160.400 C 278.314 160.400,277.189 160.239,276.980 160.042 C 276.152 159.263,255.689 158.564,252.800 159.216 M278.917 208.900 C 279.261 209.835,280.105 212.310,280.792 214.400 C 281.480 216.490,282.206 218.560,282.406 219.000 C 282.606 219.440,283.398 221.690,284.166 224.000 C 284.935 226.310,287.118 232.700,289.019 238.200 C 290.919 243.700,293.904 252.340,295.653 257.400 C 297.402 262.460,299.537 268.670,300.399 271.200 C 301.261 273.730,303.340 279.760,305.019 284.600 C 306.699 289.440,309.309 297.000,310.821 301.400 C 312.332 305.800,314.204 311.200,314.981 313.400 C 317.109 319.432,318.367 318.800,304.229 318.800 L 292.057 318.800 288.218 307.100 C 286.106 300.665,284.181 294.903,283.939 294.296 L 283.500 293.193 263.275 293.296 L 243.049 293.400 238.873 306.100 L 234.697 318.800 222.302 318.800 L 209.907 318.800 210.108 317.900 C 210.219 317.405,211.599 313.310,213.174 308.800 C 214.749 304.290,216.560 299.070,217.199 297.200 C 217.837 295.330,219.460 290.650,220.806 286.800 C 222.151 282.950,224.210 277.010,225.380 273.600 C 226.551 270.190,228.082 265.780,228.783 263.800 C 229.484 261.820,230.575 258.670,231.208 256.800 C 231.841 254.930,233.274 250.790,234.392 247.600 C 236.367 241.965,238.669 235.304,244.207 219.200 C 245.683 214.910,247.243 210.455,247.674 209.300 L 248.457 207.200 263.374 207.200 L 278.291 207.200 278.917 208.900 M262.813 233.300 C 262.610 233.795,261.702 236.540,260.796 239.400 C 258.684 246.062,250.936 269.954,250.003 272.679 C 249.612 273.823,249.391 274.858,249.513 274.979 C 249.905 275.371,277.140 275.221,277.384 274.826 C 277.585 274.501,275.831 268.787,271.607 256.000 C 270.989 254.130,269.006 248.055,267.199 242.500 C 263.931 232.450,263.518 231.584,262.813 233.300 " stroke="none" fill="#dde6ee" fill-rule="evenodd"></path></g></svg>